<svg width="1037" height="193" viewBox="0 0 1037 193" fill="none" xmlns="http://www.w3.org/2000/svg">
<g clip-path="url(#clip0)">
<path d="M319.891 52.6875L344.5 118.078L369.051 52.6875H388.211V138H373.445V109.875L374.91 72.2578L349.715 138H339.109L313.973 72.3164L315.438 109.875V138H300.672V52.6875H319.891ZM442.293 138C441.668 136.789 441.121 134.816 440.652 132.082C436.121 136.809 430.574 139.172 424.012 139.172C417.645 139.172 412.449 137.355 408.426 133.723C404.402 130.09 402.391 125.598 402.391 120.246C402.391 113.488 404.891 108.312 409.891 104.719C414.93 101.086 422.117 99.2695 431.453 99.2695H440.184V95.1094C440.184 91.8281 439.266 89.2109 437.43 87.2578C435.594 85.2656 432.801 84.2695 429.051 84.2695C425.809 84.2695 423.152 85.0898 421.082 86.7305C419.012 88.332 417.977 90.3828 417.977 92.8828H403.738C403.738 89.4062 404.891 86.1641 407.195 83.1562C409.5 80.1094 412.625 77.7266 416.57 76.0078C420.555 74.2891 424.988 73.4297 429.871 73.4297C437.293 73.4297 443.211 75.3047 447.625 79.0547C452.039 82.7656 454.305 88 454.422 94.7578V123.352C454.422 129.055 455.223 133.605 456.824 137.004V138H442.293ZM426.648 127.746C429.461 127.746 432.098 127.062 434.559 125.695C437.059 124.328 438.934 122.492 440.184 120.188V108.234H432.508C427.234 108.234 423.27 109.152 420.613 110.988C417.957 112.824 416.629 115.422 416.629 118.781C416.629 121.516 417.527 123.703 419.324 125.344C421.16 126.945 423.602 127.746 426.648 127.746ZM487.176 59.1914V74.6016H498.367V85.1484H487.176V120.539C487.176 122.961 487.645 124.719 488.582 125.812C489.559 126.867 491.277 127.395 493.738 127.395C495.379 127.395 497.039 127.199 498.719 126.809V137.824C495.477 138.723 492.352 139.172 489.344 139.172C478.406 139.172 472.938 133.137 472.938 121.066V85.1484H462.508V74.6016H472.938V59.1914H487.176ZM535.34 127.805C538.895 127.805 541.844 126.77 544.188 124.699C546.531 122.629 547.781 120.07 547.938 117.023H561.355C561.199 120.969 559.969 124.66 557.664 128.098C555.359 131.496 552.234 134.191 548.289 136.184C544.344 138.176 540.086 139.172 535.516 139.172C526.648 139.172 519.617 136.301 514.422 130.559C509.227 124.816 506.629 116.887 506.629 106.77V105.305C506.629 95.6562 509.207 87.9414 514.363 82.1602C519.52 76.3398 526.551 73.4297 535.457 73.4297C542.996 73.4297 549.129 75.6367 553.855 80.0508C558.621 84.4258 561.121 90.1875 561.355 97.3359H547.938C547.781 93.7031 546.531 90.7148 544.188 88.3711C541.883 86.0273 538.934 84.8555 535.34 84.8555C530.73 84.8555 527.176 86.5352 524.676 89.8945C522.176 93.2148 520.906 98.2734 520.867 105.07V107.355C520.867 114.23 522.098 119.367 524.559 122.766C527.059 126.125 530.652 127.805 535.34 127.805ZM586.141 81.5156C590.789 76.125 596.668 73.4297 603.777 73.4297C617.293 73.4297 624.148 81.1445 624.344 96.5742V138H610.105V97.1016C610.105 92.7266 609.148 89.6406 607.234 87.8438C605.359 86.0078 602.586 85.0898 598.914 85.0898C593.211 85.0898 588.953 87.6289 586.141 92.707V138H571.902V48H586.141V81.5156ZM676.668 138C676.043 136.789 675.496 134.816 675.027 132.082C670.496 136.809 664.949 139.172 658.387 139.172C652.02 139.172 646.824 137.355 642.801 133.723C638.777 130.09 636.766 125.598 636.766 120.246C636.766 113.488 639.266 108.312 644.266 104.719C649.305 101.086 656.492 99.2695 665.828 99.2695H674.559V95.1094C674.559 91.8281 673.641 89.2109 671.805 87.2578C669.969 85.2656 667.176 84.2695 663.426 84.2695C660.184 84.2695 657.527 85.0898 655.457 86.7305C653.387 88.332 652.352 90.3828 652.352 92.8828H638.113C638.113 89.4062 639.266 86.1641 641.57 83.1562C643.875 80.1094 647 77.7266 650.945 76.0078C654.93 74.2891 659.363 73.4297 664.246 73.4297C671.668 73.4297 677.586 75.3047 682 79.0547C686.414 82.7656 688.68 88 688.797 94.7578V123.352C688.797 129.055 689.598 133.605 691.199 137.004V138H676.668ZM661.023 127.746C663.836 127.746 666.473 127.062 668.934 125.695C671.434 124.328 673.309 122.492 674.559 120.188V108.234H666.883C661.609 108.234 657.645 109.152 654.988 110.988C652.332 112.824 651.004 115.422 651.004 118.781C651.004 121.516 651.902 123.703 653.699 125.344C655.535 126.945 657.977 127.746 661.023 127.746ZM705.086 138V52.6875H734.324C743.973 52.6875 751.316 54.6211 756.355 58.4883C761.395 62.3555 763.914 68.1172 763.914 75.7734C763.914 79.6797 762.859 83.1953 760.75 86.3203C758.641 89.4453 755.555 91.8672 751.492 93.5859C756.102 94.8359 759.656 97.1992 762.156 100.676C764.695 104.113 765.965 108.254 765.965 113.098C765.965 121.105 763.387 127.258 758.23 131.555C753.113 135.852 745.77 138 736.199 138H705.086ZM719.91 99.5039V126.164H736.375C741.023 126.164 744.656 125.012 747.273 122.707C749.891 120.402 751.199 117.199 751.199 113.098C751.199 104.23 746.668 99.6992 737.605 99.5039H719.91ZM719.91 88.6055H734.441C739.051 88.6055 742.645 87.5703 745.223 85.5C747.84 83.3906 749.148 80.4219 749.148 76.5938C749.148 72.375 747.938 69.3281 745.516 67.4531C743.133 65.5781 739.402 64.6406 734.324 64.6406H719.91V88.6055ZM776.746 105.715C776.746 99.5039 777.977 93.918 780.438 88.957C782.898 83.957 786.355 80.1289 790.809 77.4727C795.262 74.7773 800.379 73.4297 806.16 73.4297C814.715 73.4297 821.648 76.1836 826.961 81.6914C832.312 87.1992 835.203 94.5039 835.633 103.605L835.691 106.945C835.691 113.195 834.48 118.781 832.059 123.703C829.676 128.625 826.238 132.434 821.746 135.129C817.293 137.824 812.137 139.172 806.277 139.172C797.332 139.172 790.164 136.203 784.773 130.266C779.422 124.289 776.746 116.34 776.746 106.418V105.715ZM790.984 106.945C790.984 113.469 792.332 118.586 795.027 122.297C797.723 125.969 801.473 127.805 806.277 127.805C811.082 127.805 814.812 125.93 817.469 122.18C820.164 118.43 821.512 112.941 821.512 105.715C821.512 99.3086 820.125 94.2305 817.352 90.4805C814.617 86.7305 810.887 84.8555 806.16 84.8555C801.512 84.8555 797.82 86.7109 795.086 90.4219C792.352 94.0938 790.984 99.6016 790.984 106.945ZM865.574 59.1914V74.6016H876.766V85.1484H865.574V120.539C865.574 122.961 866.043 124.719 866.98 125.812C867.957 126.867 869.676 127.395 872.137 127.395C873.777 127.395 875.438 127.199 877.117 126.809V137.824C873.875 138.723 870.75 139.172 867.742 139.172C856.805 139.172 851.336 133.137 851.336 121.066V85.1484H840.906V74.6016H851.336V59.1914H865.574Z" fill="white"/>
<path fill-rule="evenodd" clip-rule="evenodd" d="M3.28894 92.6445V68.3013H190V92.6445C190 144.203 148.203 186 96.6445 186C45.0857 186 3.28894 144.203 3.28894 92.6445Z" fill="#C4C4C4"/>
<path d="M96.6445 121.634C148.203 121.634 190 95.972 190 64.3168C190 32.6616 148.203 7 96.6445 7C45.0857 7 3.289 32.6616 3.289 64.3168C3.289 95.972 45.0857 121.634 96.6445 121.634Z" fill="#797979"/>
<path d="M97.295 112.438C143.824 112.438 181.543 90.4819 181.543 63.3973C181.543 36.3126 143.824 14.3562 97.295 14.3562C50.7663 14.3562 13.0473 36.3126 13.0473 63.3973C13.0473 90.4819 50.7663 112.438 97.295 112.438Z" fill="#CEF47B"/>
<path d="M51.4305 43.7807C55.742 43.7807 59.2372 42.1339 59.2372 40.1026C59.2372 38.0712 55.742 36.4245 51.4305 36.4245C47.119 36.4245 43.6238 38.0712 43.6238 40.1026C43.6238 42.1339 47.119 43.7807 51.4305 43.7807Z" fill="#B3D66B"/>
<path d="M78.7541 57.8801C83.0656 57.8801 86.5608 56.2334 86.5608 54.202C86.5608 52.1707 83.0656 50.5239 78.7541 50.5239C74.4426 50.5239 70.9474 52.1707 70.9474 54.202C70.9474 56.2334 74.4426 57.8801 78.7541 57.8801Z" fill="#B3D66B"/>
<path d="M91.7653 40.1028C96.0768 40.1028 99.572 38.456 99.572 36.4247C99.572 34.3933 96.0768 32.7466 91.7653 32.7466C87.4537 32.7466 83.9586 34.3933 83.9586 36.4247C83.9586 38.456 87.4537 40.1028 91.7653 40.1028Z" fill="#B3D66B"/>
<path d="M119.089 54.2021C123.401 54.2021 126.896 52.5553 126.896 50.524C126.896 48.4926 123.401 46.8459 119.089 46.8459C114.777 46.8459 111.282 48.4926 111.282 50.524C111.282 52.5553 114.777 54.2021 119.089 54.2021Z" fill="#B3D66B"/>
<path d="M3.61423 109.68C3.61423 109.68 -4.51779 -8.32534 3.61423 68.9144C11.7462 146.154 89.163 183.241 92.4158 185.08C95.6686 186.92 83.308 185.08 83.308 185.08L70.9473 183.241L62.8153 180.483L53.7074 177.111L43.6237 171.594L33.8653 164.238L21.5047 152.591L14.9991 141.863L10.1198 132.668C7.19232 127.151 6.97971 124.357 5.56591 118.875C4.64811 115.317 3.61423 109.68 3.61423 109.68Z" fill="#797979" fill-opacity="0.04"/>
</g>
<defs>
<clipPath id="clip0">
<rect width="1037" height="193" fill="white"/>
</clipPath>
</defs>
</svg>
