<svg width="900" height="900" viewBox="0 0 900 900" fill="none" xmlns="http://www.w3.org/2000/svg">
<g clip-path="url(#clip0)">
<rect width="900" height="900" fill="white"/>
<path d="M167.82 428.655H715V539.879C715 680.62 600.907 794.713 460.167 794.713H422.653C281.913 794.713 167.82 680.62 167.82 539.879V428.655Z" fill="#C4C4C4"/>
<path d="M169.621 567.833C169.621 567.833 154.928 298.238 177.943 495.679C200.959 693.12 420.068 787.922 429.275 792.623C438.481 797.324 403.497 792.623 403.497 792.623L368.513 787.922L345.498 780.871L319.72 772.253L291.181 758.15L263.562 739.346L230.63 707.965L210.165 682.151L196.356 658.646C188.07 644.543 181.945 623.789 177.943 609.777C175.346 600.681 169.621 567.833 169.621 567.833Z" fill="#B5B4B4"/>
<ellipse cx="441.41" cy="416.262" rx="273.59" ry="178.262" fill="#797979"/>
<ellipse cx="443.317" cy="413.403" rx="246.898" ry="152.524" fill="#CEF47B"/>
<ellipse cx="308.905" cy="340.954" rx="22.8786" ry="11.4393" fill="#B3D66B"/>
<ellipse cx="388.98" cy="384.804" rx="22.8786" ry="11.4393" fill="#B3D66B"/>
<ellipse cx="427.111" cy="329.514" rx="22.8786" ry="11.4393" fill="#B3D66B"/>
<ellipse cx="507.186" cy="373.365" rx="22.8786" ry="11.4393" fill="#B3D66B"/>
<g clip-path="url(#clip1)">
<path d="M710.195 235.975C711.677 235.943 713.04 235.33 713.927 234.27C714.814 233.21 715.197 231.736 714.966 230.272C714.739 228.815 713.908 227.417 712.698 226.406C711.489 225.394 709.94 224.8 708.466 224.834C706.984 224.865 705.629 225.529 704.744 226.587C703.859 227.644 703.465 229.072 703.695 230.537C704.182 233.482 707.239 236.04 710.195 235.975Z" fill="#645252"/>
<path d="M678.322 271.817C678.428 271.643 689.314 254.565 702.22 244.084L694.298 235.162C680.238 246.586 668.896 264.37 668.422 265.122L678.322 271.817Z" fill="#645252"/>
<path d="M676.319 301.445L686.847 310.253L689.558 303.94C689.698 303.623 703.528 271.942 732.283 252.884C737.566 249.373 740.377 243.503 740.19 236.353C740.03 230.172 737.608 223.573 733.702 217.88C740.581 207.684 737.732 192.764 726.78 183.602L703.573 164.186C692.733 155.117 677.737 154.861 668.88 163.175C662.572 159.875 656.052 158.353 650.353 159.079C645.479 159.697 638.774 162.235 634.521 170.774C618.039 203.831 591.899 221.928 591.641 222.111L586.048 225.926L595.479 233.816L484.934 312.945C475.684 319.912 462.837 335.74 473.379 350.869C475.263 353.567 478.817 354.515 481.344 353.025C483.873 351.532 484.403 348.143 482.537 345.459C475.554 335.439 492.422 322.212 492.5 322.155L603.139 242.96C603.733 242.532 604.196 241.99 604.525 241.388L619.937 254.283L509.393 333.412C500.143 340.379 487.296 356.207 497.838 371.336C499.722 374.034 503.276 374.982 505.803 373.492C508.332 372 508.861 368.61 506.995 365.926C500.012 355.906 516.88 342.679 516.959 342.622L600.882 282.547L526.123 389.668C524.528 391.951 525.273 395.276 527.66 397.242C527.672 397.252 527.685 397.272 527.695 397.284C527.739 397.326 527.784 397.35 527.823 397.387C527.872 397.424 527.904 397.464 527.948 397.496C527.965 397.51 527.981 397.515 528.001 397.527C530.364 399.54 533.764 399.679 535.727 397.703L626.482 306.696L583.145 397.842C583.045 398.034 572.901 416.921 561.918 411.867C558.941 410.499 555.704 411.624 554.681 414.377C553.655 417.122 555.215 420.453 558.209 421.836C574.959 429.539 588.268 414.098 593.54 403.658L651.647 281.46L652.006 281.103L667.28 293.882C666.74 294.307 666.288 294.859 665.977 295.523L607.606 418.307C607.511 418.504 597.361 437.386 586.378 432.332C583.401 430.964 580.165 432.088 579.142 434.841C578.115 437.587 579.675 440.917 582.67 442.3C599.42 450.004 612.734 434.567 618.007 424.128L676.319 301.445ZM696.841 172.239L720.048 191.654C725.474 196.194 727.376 203.235 725.127 208.776L679.098 170.267C684.158 167.082 691.421 167.704 696.841 172.239ZM653.244 170.122C658.235 169.483 664.927 172.097 670.721 176.944L720.031 218.198C725.127 222.461 728.653 229.296 728.806 235.199C728.904 238.956 727.656 241.721 725.093 243.422C701.656 258.963 687.659 281.672 681.948 292.469L604.255 227.469C613.274 220.145 631.76 203.011 644.897 176.649C646.848 172.721 649.582 170.589 653.244 170.122ZM573.027 343.35L629.572 262.335L642.793 273.395L573.027 343.35Z" fill="#645252"/>
</g>
<path d="M371.803 210C370.534 210 369.285 209.677 368.163 209.059C367.041 208.44 366.08 207.545 365.362 206.451C364.645 205.357 364.193 204.097 364.045 202.779C363.898 201.461 364.059 200.125 364.516 198.887L370.456 182.764C372.13 178.191 372.631 173.239 371.909 168.4C371.186 163.562 369.264 159.006 366.336 155.186C361.325 148.641 358.184 140.748 357.275 132.417C356.365 124.085 357.725 115.654 361.197 108.096L368.771 91.7233C369.207 90.741 369.827 89.8594 370.592 89.1299C371.358 88.4003 372.255 87.8374 373.23 87.4738C374.206 87.1102 375.241 86.9532 376.275 87.012C377.309 87.0708 378.322 87.3442 379.254 87.8163C380.186 88.2883 381.019 88.9496 381.705 89.7617C382.39 90.5737 382.915 91.5203 383.247 92.5464C383.58 93.5725 383.714 94.6575 383.642 95.7384C383.57 96.8193 383.294 97.8744 382.828 98.8424L375.255 115.215C373.064 119.984 372.206 125.304 372.779 130.561C373.353 135.818 375.333 140.799 378.494 144.929C383.138 150.984 386.185 158.206 387.331 165.876C388.476 173.546 387.681 181.397 385.023 188.645L379.084 204.768C378.516 206.307 377.517 207.631 376.218 208.564C374.918 209.498 373.379 209.999 371.803 210Z" fill="#DCE8C4"/>
<path d="M426.381 210C425.112 210 423.863 209.676 422.742 209.058C421.62 208.44 420.659 207.545 419.941 206.45C419.224 205.356 418.772 204.096 418.625 202.778C418.478 201.46 418.639 200.125 419.096 198.887L425.043 182.764C426.718 178.191 427.218 173.239 426.495 168.4C425.772 163.562 423.85 159.006 420.921 155.186C415.913 148.641 412.774 140.749 411.866 132.42C410.958 124.09 412.318 115.661 415.788 108.104L423.337 91.7907C424.253 89.8647 425.859 88.3946 427.805 87.6995C429.751 87.0045 431.88 87.1405 433.731 88.078C435.582 89.0156 437.005 90.6791 437.691 92.7074C438.377 94.7357 438.27 96.9651 437.394 98.9118L429.846 115.225C427.656 119.994 426.798 125.313 427.371 130.57C427.945 135.827 429.925 140.807 433.085 144.938C437.73 150.992 440.777 158.214 441.922 165.884C443.068 173.554 442.272 181.405 439.614 188.653L433.675 204.777C433.106 206.316 432.104 207.639 430.802 208.572C429.5 209.504 427.958 210.002 426.381 210Z" fill="#DCE8C4"/>
<path d="M480.958 210C479.69 210 478.441 209.676 477.319 209.058C476.197 208.44 475.236 207.545 474.519 206.45C473.802 205.356 473.35 204.096 473.203 202.778C473.055 201.46 473.217 200.125 473.674 198.887L479.613 182.764C481.288 178.191 481.788 173.239 481.065 168.4C480.342 163.562 478.42 159.006 475.491 155.186C470.483 148.641 467.344 140.749 466.436 132.42C465.528 124.09 466.888 115.661 470.358 108.104L477.932 91.7314C478.853 89.8146 480.458 88.3538 482.4 87.6646C484.343 86.9754 486.466 87.1131 488.312 88.0479C490.158 88.9827 491.578 90.6396 492.266 92.6608C492.954 94.682 492.855 96.9053 491.99 98.8505L484.416 115.223C482.225 119.992 481.367 125.312 481.94 130.569C482.512 135.826 484.493 140.807 487.653 144.938C492.298 150.992 495.345 158.214 496.491 165.884C497.636 173.554 496.841 181.405 494.184 188.653L488.245 204.777C487.676 206.315 486.676 207.637 485.375 208.57C484.075 209.502 482.535 210.001 480.958 210Z" fill="#DCE8C4"/>
<path d="M436.037 671C436.037 690.833 419.067 707 398.019 707C376.971 707 360 690.833 360 671C360 651.167 376.971 635 398.019 635C419.067 635 436.037 651.167 436.037 671Z" fill="#FEFEFE" stroke="#797979" stroke-width="2"/>
<ellipse cx="389.435" cy="673.96" rx="8.58411" ry="8.88" fill="#2E2D2D"/>
<path d="M525 671C525 690.833 508.029 707 486.981 707C465.933 707 448.963 690.833 448.963 671C448.963 651.167 465.933 635 486.981 635C508.029 635 525 651.167 525 671Z" fill="#FEFEFE" stroke="#797979" stroke-width="2"/>
<ellipse cx="478.397" cy="673.96" rx="8.58411" ry="8.88" fill="#2E2D2D"/>
<path d="M381 736C391.5 753 404 757.5 419 762C434 766.5 456.5 765 469 762C469 762 499.5 757 517 736" stroke="white" stroke-width="3"/>
</g>
<defs>
<clipPath id="clip0">
<rect width="900" height="900" fill="white"/>
</clipPath>
<clipPath id="clip1">
<rect width="349.116" height="382.539" fill="white" transform="translate(661.764 516.417) rotate(-140.083)"/>
</clipPath>
</defs>
</svg>
